<svg width="32" height="30" viewBox="0 0 32 30" fill="none" xmlns="http://www.w3.org/2000/svg">
<path d="M8.73877 18.5455L13.2258 13.0201L18.3463 16.8265L22.7388 11.4546" stroke="#BBBFD0" stroke-width="3" stroke-miterlimit="10" stroke-linecap="round" stroke-linejoin="round"/>
<path d="M27.5849 6.72727C29.0718 6.72727 30.2772 5.66904 30.2772 4.36364C30.2772 3.05824 29.0718 2 27.5849 2C26.098 2 24.8926 3.05824 24.8926 4.36364C24.8926 5.66904 26.098 6.72727 27.5849 6.72727Z" stroke="#BBBFD0" stroke-width="3" stroke-miterlimit="10" stroke-linecap="round" stroke-linejoin="round"/>
<path d="M20.0879 2H9.43011C5.0145 2 2.27722 5.0199 2.27722 9.28372V20.7285C2.27722 24.9923 4.96003 28 9.43011 28H22.0461C26.4618 28 29.2003 24.9923 29.2003 20.7285V10.7625" stroke="#BBBFD0" stroke-width="3" stroke-miterlimit="10" stroke-linecap="round" stroke-linejoin="round"/>
</svg>
