<svg width="37" height="30" viewBox="0 0 37 30" fill="none" xmlns="http://www.w3.org/2000/svg">
<path d="M18.5544 18.9002C20.7084 18.9002 22.4544 17.1541 22.4544 15.0002C22.4544 12.8462 20.7084 11.1002 18.5544 11.1002C16.4004 11.1002 14.6544 12.8462 14.6544 15.0002C14.6544 17.1541 16.4004 18.9002 18.5544 18.9002Z" stroke="#BBBFD0" stroke-width="3" stroke-linecap="round" stroke-linejoin="round"/>
<path d="M28.4636 12.914L27.0366 9.46824L28.9544 7.2L26.3544 4.6L24.0986 6.52784L20.5796 5.08066L19.7703 2H17.2297L16.4083 5.12147L12.9702 6.57075L10.7544 4.6L8.15444 7.2L10.0438 9.5255L8.63869 12.9802L5.55444 13.7V16.3L8.67589 17.1521L10.1249 20.5896L8.15444 22.8L10.7544 25.4L13.083 23.5024L16.4705 24.896L17.2544 28H19.8544L20.6403 24.8972L24.0861 23.4701C24.6604 23.8807 26.3544 25.4 26.3544 25.4L28.9544 22.8L27.0251 20.5242L28.4525 17.0774L31.5543 16.2704L31.5544 13.7L28.4636 12.914Z" stroke="#BBBFD0" stroke-width="3" stroke-linecap="round" stroke-linejoin="round"/>
</svg>
