<svg width="37" height="30" viewBox="0 0 37 30" fill="none" xmlns="http://www.w3.org/2000/svg">
<path d="M31.4157 2L30.0269 3.36843" stroke="#BBBFD0" stroke-width="3" stroke-linecap="round" stroke-linejoin="round"/>
<path d="M6.41577 2L7.80466 3.36843" stroke="#BBBFD0" stroke-width="3" stroke-linecap="round" stroke-linejoin="round"/>
<path d="M31.4157 21.1578L30.0269 19.7894" stroke="#BBBFD0" stroke-width="3" stroke-linecap="round" stroke-linejoin="round"/>
<path d="M6.41577 21.1578L7.80466 19.7894" stroke="#BBBFD0" stroke-width="3" stroke-linecap="round" stroke-linejoin="round"/>
<path d="M14.7491 23.8948H23.0825" stroke="#BBBFD0" stroke-width="3" stroke-linecap="round" stroke-linejoin="round"/>
<path d="M16.1379 28H21.6935" stroke="#BBBFD0" stroke-width="3" stroke-linecap="round" stroke-linejoin="round"/>
<path d="M18.9155 3.36847C13.3598 3.36847 10.5155 6.03729 10.5822 10.2106C10.6147 12.2453 11.2764 13.6317 12.6655 15.0001C14.0546 16.3685 14.7491 17.0527 14.7489 19.7896H23.0821C23.0824 17.0529 23.7769 16.3685 25.1653 15.0002C26.5541 13.6318 27.2165 12.2453 27.2488 10.2106C27.3155 6.03729 24.4713 3.36847 18.9155 3.36847Z" stroke="#BBBFD0" stroke-width="3" stroke-linecap="round" stroke-linejoin="round"/>
</svg>
