<svg width="28" height="28" viewBox="0 0 28 28" fill="none" xmlns="http://www.w3.org/2000/svg">
<path d="M10.381 24.5278V20.8588C10.3818 20.6352 10.4289 20.4139 10.5198 20.2076C10.6106 20.0012 10.7433 19.8139 10.9104 19.6563C11.0774 19.4987 11.2755 19.3739 11.4933 19.289C11.7111 19.2042 11.9444 19.1609 12.1799 19.1616H15.8104C16.2868 19.1615 16.7439 19.3402 17.0821 19.6589C17.249 19.816 17.3815 20.0029 17.4719 20.2088C17.5624 20.4147 17.6091 20.6357 17.6093 20.8588V24.5266C17.6081 24.7194 17.6472 24.9104 17.7243 25.0886C17.8015 25.2669 17.9151 25.4288 18.0587 25.565C18.3506 25.8413 18.7459 25.9965 19.158 25.9965H21.6346C22.7897 25.9998 23.8993 25.5689 24.721 24.7978C25.1259 24.4175 25.4475 23.9647 25.667 23.4657C25.8865 22.9666 25.9997 22.4312 26 21.8903V11.4406C26.0004 11.0042 25.8994 10.573 25.7041 10.1779C25.5088 9.78283 25.2242 9.43356 24.8704 9.15503L16.4432 2.80934C15.731 2.27061 14.8433 1.98463 13.933 2.00064C13.0227 2.01664 12.1467 2.33363 11.4559 2.89702L3.22192 9.15503C2.85141 9.42508 2.54932 9.77057 2.33786 10.1661C2.1264 10.5616 2.01095 10.9971 2 11.4406L2 21.8822C2.00191 22.4249 2.11635 22.9619 2.33678 23.4625C2.55721 23.9632 2.87932 24.4177 3.2847 24.8001C3.69008 25.1824 4.1708 25.4852 4.69939 25.6911C5.22799 25.897 5.7941 26.0019 6.3654 26H8.78617C9.19675 26.0012 9.5912 25.8483 9.88356 25.5744C10.1759 25.3006 10.3425 24.9281 10.347 24.5382L10.381 24.5278Z" stroke="#091B35" stroke-width="3"/>
</svg>
